<svg id="svg" version="1.1" xmlns="http://www.w3.org/2000/svg" xmlns:xlink="http://www.w3.org/1999/xlink" width="400" height="67.8125" viewBox="0, 0, 400,67.8125"><g id="svgg"><path id="path0" d="M0.000 33.833 L 0.000 67.667 97.333 67.667 L 194.667 67.667 194.667 66.597 C 194.667 65.898,194.739 65.499,194.875 65.443 C 195.032 65.380,195.021 65.315,194.833 65.182 C 194.664 65.062,194.650 65.004,194.792 65.003 C 195.067 64.999,195.067 63.888,194.792 63.777 C 194.625 63.710,194.625 63.690,194.792 63.680 C 195.064 63.663,195.064 62.720,194.792 62.610 C 194.625 62.543,194.625 62.524,194.792 62.513 C 195.066 62.496,195.066 61.388,194.792 61.277 C 194.625 61.210,194.625 61.190,194.792 61.180 C 195.064 61.163,195.064 60.220,194.792 60.110 C 194.625 60.043,194.625 60.024,194.792 60.013 C 195.066 59.996,195.066 58.888,194.792 58.777 C 194.625 58.710,194.625 58.690,194.792 58.680 C 195.064 58.663,195.064 57.720,194.792 57.610 C 194.625 57.543,194.625 57.524,194.792 57.513 C 195.066 57.496,195.066 56.388,194.792 56.277 C 194.625 56.210,194.625 56.190,194.792 56.180 C 194.908 56.172,195.000 55.951,195.000 55.681 C 195.000 55.413,194.906 55.157,194.792 55.110 C 194.625 55.043,194.625 55.024,194.792 55.013 C 195.048 54.997,195.078 53.833,194.821 53.833 C 194.491 53.833,195.107 53.364,195.514 53.307 C 195.804 53.266,195.944 53.113,196.021 52.750 C 196.079 52.475,196.136 52.338,196.147 52.446 C 196.173 52.707,198.371 52.701,198.539 52.440 C 198.627 52.303,198.662 52.308,198.664 52.458 C 198.667 52.720,199.074 52.727,199.480 52.474 C 199.927 52.195,200.333 52.413,200.333 52.932 C 200.333 53.294,200.376 53.339,200.568 53.179 C 201.014 52.809,201.055 53.359,201.047 59.612 C 201.040 64.801,201.077 65.833,201.269 65.833 C 201.438 65.833,201.500 66.081,201.500 66.749 L 201.500 67.665 299.986 67.666 C 378.724 67.667,398.489 67.626,398.556 67.459 C 398.623 67.292,398.643 67.292,398.654 67.458 C 398.661 67.573,398.818 67.667,399.002 67.667 C 399.310 67.667,399.333 67.576,399.283 66.551 C 399.253 65.938,399.258 65.525,399.295 65.635 C 399.410 65.980,400.000 65.867,400.000 65.500 C 400.000 65.317,399.910 65.167,399.800 65.167 C 399.644 65.167,399.644 65.122,399.800 64.967 C 400.063 64.704,400.057 63.884,399.792 63.777 C 399.625 63.710,399.625 63.690,399.792 63.680 C 400.060 63.663,400.068 62.667,399.800 62.667 C 399.644 62.667,399.644 62.622,399.800 62.467 C 399.910 62.357,400.000 62.109,400.000 61.917 C 400.000 61.724,399.910 61.477,399.800 61.367 C 399.644 61.211,399.644 61.167,399.800 61.167 C 399.911 61.167,400.000 60.944,400.000 60.667 C 400.000 60.389,399.911 60.167,399.800 60.167 C 399.644 60.167,399.644 60.122,399.800 59.967 C 399.910 59.857,400.000 59.609,400.000 59.417 C 400.000 59.224,399.910 58.977,399.800 58.867 C 399.644 58.711,399.644 58.667,399.800 58.667 C 399.911 58.667,400.000 58.444,400.000 58.167 C 400.000 57.889,399.911 57.667,399.800 57.667 C 399.644 57.667,399.644 57.622,399.800 57.467 C 399.910 57.357,400.000 57.109,400.000 56.917 C 400.000 56.724,399.910 56.477,399.800 56.367 C 399.644 56.211,399.644 56.167,399.800 56.167 C 399.911 56.167,400.000 55.944,400.000 55.667 C 400.000 55.389,399.911 55.167,399.800 55.167 C 399.644 55.167,399.644 55.122,399.800 54.967 C 400.057 54.710,400.057 54.124,399.800 53.867 C 399.644 53.711,399.644 53.667,399.800 53.667 C 399.911 53.667,400.000 53.444,400.000 53.167 C 400.000 52.889,399.911 52.667,399.800 52.667 C 399.644 52.667,399.644 52.622,399.800 52.467 C 399.910 52.357,400.000 52.109,400.000 51.917 C 400.000 51.724,399.910 51.477,399.800 51.367 C 399.644 51.211,399.644 51.167,399.800 51.167 C 399.911 51.167,400.000 50.944,400.000 50.667 C 400.000 50.389,399.911 50.167,399.800 50.167 C 399.644 50.167,399.644 50.122,399.800 49.967 C 400.057 49.710,400.057 49.124,399.800 48.867 C 399.644 48.711,399.644 48.667,399.800 48.667 C 399.911 48.667,400.000 48.444,400.000 48.167 C 400.000 47.889,399.911 47.667,399.800 47.667 C 399.644 47.667,399.644 47.622,399.800 47.467 C 400.057 47.210,400.057 46.624,399.800 46.367 C 399.644 46.211,399.644 46.167,399.800 46.167 C 399.911 46.167,400.000 45.944,400.000 45.667 C 400.000 45.389,399.911 45.167,399.800 45.167 C 399.644 45.167,399.644 45.122,399.800 44.967 C 400.057 44.710,400.057 44.124,399.800 43.867 C 399.644 43.711,399.644 43.667,399.800 43.667 C 400.066 43.667,400.058 42.718,399.792 42.610 C 399.625 42.543,399.625 42.524,399.792 42.513 C 400.058 42.496,400.064 41.631,399.800 41.367 C 399.644 41.211,399.644 41.167,399.800 41.167 C 399.911 41.167,400.000 40.944,400.000 40.667 C 400.000 40.379,399.911 40.166,399.792 40.164 C 399.640 40.162,399.635 40.128,399.775 40.039 C 400.030 39.877,400.030 37.790,399.775 37.628 C 399.631 37.536,399.632 37.504,399.777 37.503 C 399.905 37.501,399.971 37.107,399.971 36.333 C 399.971 35.560,399.905 35.166,399.777 35.164 C 399.632 35.162,399.631 35.131,399.775 35.039 C 399.888 34.967,399.967 34.468,399.967 33.833 C 399.967 33.198,399.888 32.699,399.775 32.628 C 399.631 32.536,399.632 32.504,399.777 32.503 C 399.905 32.501,399.971 32.107,399.971 31.333 C 399.971 30.560,399.905 30.166,399.777 30.164 C 399.632 30.162,399.631 30.131,399.775 30.039 C 400.030 29.877,400.030 27.790,399.775 27.628 C 399.635 27.538,399.640 27.504,399.792 27.503 C 399.911 27.501,400.000 27.288,400.000 27.000 C 400.000 26.722,399.911 26.500,399.800 26.500 C 399.644 26.500,399.644 26.456,399.800 26.300 C 400.063 26.037,400.057 25.218,399.792 25.110 C 399.625 25.043,399.625 25.024,399.792 25.013 C 400.060 24.996,400.068 24.000,399.800 24.000 C 399.644 24.000,399.644 23.956,399.800 23.800 C 399.910 23.690,400.000 23.443,400.000 23.250 C 400.000 23.057,399.910 22.810,399.800 22.700 C 399.644 22.544,399.644 22.500,399.800 22.500 C 399.954 22.500,400.000 19.889,400.000 11.249 L 400.000 -0.001 341.917 0.001 L 283.833 0.003 283.833 0.408 C 283.833 0.631,283.761 0.858,283.673 0.913 C 283.585 0.967,283.533 1.425,283.558 1.929 C 283.587 2.529,283.527 2.908,283.385 3.027 C 283.251 3.138,283.167 3.582,283.167 4.177 C 283.167 4.711,283.097 5.190,283.011 5.243 C 282.667 5.456,282.833 13.031,283.184 13.123 C 283.358 13.168,283.508 13.328,283.518 13.478 C 283.527 13.627,283.551 14.050,283.571 14.417 C 283.621 15.325,283.968 16.868,284.169 17.069 C 284.259 17.159,284.333 17.353,284.333 17.500 C 284.333 17.846,284.713 18.664,284.875 18.665 C 284.944 18.666,285.000 18.817,285.000 19.000 C 285.000 19.183,285.101 19.333,285.226 19.333 C 285.396 19.333,285.431 19.539,285.370 20.174 C 285.302 20.881,285.349 21.078,285.661 21.410 C 286.020 21.792,286.032 21.922,286.044 25.382 L 286.057 28.958 285.487 29.525 C 284.786 30.222,283.550 30.301,283.014 29.683 C 282.847 29.491,282.621 29.333,282.510 29.333 C 281.863 29.333,281.805 28.957,281.815 24.880 C 281.823 21.934,281.774 20.898,281.621 20.802 C 281.461 20.700,281.462 20.671,281.625 20.669 C 281.916 20.666,281.916 18.394,281.625 18.277 C 281.458 18.210,281.458 18.190,281.625 18.180 C 281.771 18.171,281.833 17.815,281.833 17.000 C 281.833 16.183,281.771 15.830,281.625 15.823 C 281.510 15.817,281.585 15.744,281.792 15.661 L 282.167 15.511 282.167 10.781 C 282.167 6.263,282.152 6.038,281.833 5.750 C 281.564 5.506,281.500 5.237,281.500 4.341 C 281.500 3.720,281.415 3.148,281.306 3.039 C 281.199 2.932,281.089 2.417,281.060 1.894 C 281.032 1.370,280.932 0.865,280.838 0.771 C 280.744 0.677,280.667 0.465,280.667 0.301 C 280.667 0.013,275.256 0.001,140.333 0.000 L 0.000 -0.001 0.000 33.833 M13.662 1.078 C 13.865 1.323,13.791 2.066,13.314 4.571 C 13.071 5.848,13.309 5.780,15.090 4.066 C 18.009 1.256,18.612 0.981,22.083 0.873 C 27.302 0.710,30.516 1.652,31.667 3.682 L 32.083 4.417 32.127 35.230 C 32.160 58.197,32.122 66.103,31.980 66.274 C 31.823 66.463,30.725 66.496,25.770 66.460 L 19.750 66.417 19.707 55.016 C 19.677 46.931,19.610 43.550,19.478 43.391 C 19.338 43.221,18.676 43.167,16.750 43.167 C 14.824 43.167,14.162 43.221,14.022 43.391 C 13.890 43.550,13.823 46.931,13.793 55.016 L 13.750 66.417 7.678 66.460 C 2.931 66.495,1.576 66.458,1.472 66.294 C 1.240 65.927,1.300 1.266,1.533 1.033 C 1.859 0.708,13.391 0.751,13.662 1.078 M47.238 1.095 C 47.474 1.331,47.500 3.963,47.500 27.577 C 47.500 51.333,47.525 53.807,47.764 53.899 C 47.909 53.954,50.256 54.000,52.980 54.000 C 56.610 54.000,57.987 54.053,58.133 54.200 C 58.420 54.487,58.420 66.013,58.133 66.300 C 57.738 66.696,35.219 66.576,35.006 66.178 C 34.686 65.579,34.774 1.417,35.095 1.095 C 35.491 0.700,46.843 0.700,47.238 1.095 M71.678 1.006 C 71.994 1.175,72.000 1.607,72.003 23.798 L 72.007 46.417 73.295 48.291 C 74.004 49.321,74.668 50.165,74.771 50.166 C 74.966 50.167,75.790 49.147,76.982 47.431 L 77.667 46.445 77.667 23.901 C 77.667 3.629,77.693 1.331,77.929 1.095 C 78.294 0.730,89.417 0.698,89.914 1.061 C 90.274 1.324,90.559 50.946,90.206 51.960 C 90.114 52.222,88.882 54.045,87.467 56.010 C 86.053 57.975,83.897 60.971,82.676 62.667 C 81.456 64.362,80.304 65.919,80.116 66.125 C 79.746 66.533,70.568 66.726,69.849 66.342 C 69.686 66.255,68.847 65.199,67.985 63.996 C 67.122 62.792,66.042 61.293,65.583 60.665 C 63.916 58.378,60.238 53.268,59.792 52.617 L 59.333 51.950 59.333 26.696 C 59.333 3.432,59.355 1.419,59.609 1.138 C 59.932 0.781,71.030 0.659,71.678 1.006 M116.424 1.115 C 116.787 1.478,116.701 13.105,116.333 13.337 C 116.196 13.424,114.985 13.496,113.643 13.497 C 111.573 13.500,111.187 13.540,111.101 13.764 C 110.891 14.311,110.988 53.588,111.200 53.800 C 111.337 53.937,112.166 54.000,113.846 54.000 C 115.603 54.000,116.340 54.059,116.459 54.208 C 116.759 54.582,116.696 65.947,116.393 66.250 C 116.059 66.584,93.533 66.633,93.200 66.300 C 92.971 66.071,92.908 54.569,93.135 54.213 C 93.225 54.070,94.035 53.995,95.840 53.963 L 98.417 53.917 98.459 33.708 L 98.501 13.500 96.013 13.500 C 93.972 13.500,93.477 13.453,93.262 13.238 C 92.862 12.838,92.867 1.490,93.268 1.090 C 93.650 0.707,116.041 0.732,116.424 1.115 M131.520 1.120 C 131.662 1.262,131.627 1.825,131.380 3.363 C 130.952 6.028,130.980 6.037,133.224 3.893 C 136.224 1.028,137.700 0.577,142.747 0.977 C 147.338 1.342,149.279 2.284,149.814 4.409 C 150.147 5.732,150.071 66.270,149.736 66.399 C 149.148 66.625,137.882 66.510,137.688 66.276 C 137.556 66.117,137.490 62.736,137.459 54.651 L 137.417 43.250 134.667 43.250 L 131.917 43.250 131.833 54.667 C 131.787 60.946,131.689 66.177,131.615 66.292 C 131.473 66.511,120.153 66.612,119.597 66.399 C 119.138 66.223,119.200 1.205,119.660 1.036 C 120.230 0.827,131.305 0.905,131.520 1.120 M167.910 1.058 C 168.207 1.275,168.206 1.345,167.874 3.349 C 167.681 4.512,167.594 5.483,167.675 5.568 C 167.889 5.793,170.427 3.253,170.604 2.636 C 170.726 2.211,170.884 2.082,171.501 1.906 C 171.913 1.788,172.700 1.528,173.250 1.327 C 175.364 0.555,182.279 0.856,183.710 1.783 C 183.824 1.857,187.817 1.954,192.583 2.000 C 202.329 2.094,201.937 2.041,203.136 3.407 C 204.385 4.829,204.345 4.150,204.295 23.500 L 204.250 40.750 203.866 41.583 C 202.703 44.111,202.370 44.200,193.583 44.321 L 186.583 44.417 186.540 55.356 C 186.503 64.817,186.464 66.322,186.249 66.501 C 186.112 66.615,186.000 66.840,186.000 67.003 C 186.000 67.165,185.881 67.343,185.736 67.399 C 185.392 67.531,174.108 67.531,173.764 67.399 C 173.525 67.307,173.500 64.921,173.500 42.075 C 173.500 23.943,173.449 16.821,173.317 16.740 C 173.157 16.641,172.013 17.742,169.000 20.896 L 168.250 21.681 168.167 44.049 L 168.083 66.417 162.103 66.460 C 157.828 66.492,156.058 66.450,155.895 66.315 C 155.704 66.156,155.667 61.869,155.667 39.813 L 155.667 13.500 154.572 13.500 C 152.680 13.500,152.833 14.061,152.833 7.155 L 152.833 1.156 153.208 1.005 C 153.858 0.744,167.547 0.793,167.910 1.058 M237.833 2.394 C 239.072 3.054,239.700 3.889,240.107 5.417 C 240.397 6.504,240.438 32.374,240.152 33.919 C 239.925 35.147,239.482 36.100,238.726 36.982 L 238.138 37.669 238.875 38.489 C 240.383 40.166,240.333 39.623,240.333 54.401 L 240.333 67.294 239.958 67.395 C 239.467 67.527,228.440 67.530,228.097 67.399 C 227.860 67.308,227.833 66.140,227.833 55.905 C 227.833 44.811,227.825 44.507,227.511 44.339 C 227.044 44.089,222.454 44.113,222.200 44.367 C 222.048 44.518,222.000 47.315,222.000 55.932 C 222.000 66.142,221.973 67.308,221.736 67.399 C 221.342 67.550,209.950 67.516,209.709 67.363 C 209.545 67.259,209.492 61.712,209.459 40.907 L 209.417 14.583 208.083 14.500 L 206.750 14.417 206.706 8.417 C 206.682 5.118,206.699 2.323,206.744 2.206 C 206.896 1.811,237.081 1.993,237.833 2.394 M270.941 2.370 C 272.362 3.148,273.137 4.513,273.367 6.640 C 273.531 8.169,273.392 63.020,273.221 63.917 C 272.963 65.268,271.608 66.953,270.532 67.259 C 269.766 67.478,247.403 67.541,246.140 67.329 C 244.800 67.103,243.893 66.417,243.202 65.106 L 242.750 64.250 242.750 34.750 L 242.750 5.250 243.131 4.477 C 243.711 3.299,244.428 2.606,245.447 2.239 C 246.515 1.855,270.221 1.976,270.941 2.370 M306.800 2.200 C 307.067 2.467,307.089 61.848,306.823 63.500 C 306.466 65.719,305.255 67.045,303.312 67.348 C 302.629 67.454,297.979 67.498,290.820 67.467 C 277.927 67.410,278.489 67.469,277.392 66.066 C 276.203 64.546,276.250 65.160,276.250 51.250 L 276.250 38.750 282.417 38.750 L 288.583 38.750 288.667 46.833 L 288.750 54.917 291.583 54.917 L 294.417 54.917 294.462 35.083 C 294.488 24.175,294.467 15.081,294.418 14.875 C 294.334 14.529,294.234 14.500,293.113 14.500 C 291.381 14.500,291.500 14.961,291.500 8.250 C 291.500 3.922,291.552 2.348,291.700 2.200 C 291.988 1.912,306.512 1.912,306.800 2.200 M334.292 2.253 C 334.427 2.494,334.400 13.598,334.263 14.208 C 334.202 14.479,333.780 14.500,328.283 14.500 C 323.044 14.500,322.357 14.530,322.268 14.764 C 322.041 15.355,322.157 31.284,322.389 31.477 C 322.539 31.602,324.345 31.676,327.931 31.706 L 333.250 31.750 333.294 37.878 L 333.337 44.007 332.877 44.186 C 332.561 44.310,330.925 44.329,327.647 44.248 C 324.190 44.163,322.780 44.184,322.522 44.321 C 322.168 44.511,321.940 53.881,322.268 54.736 C 322.357 54.970,323.033 55.000,328.143 55.003 C 331.318 55.004,334.004 55.061,334.111 55.129 C 334.430 55.332,334.516 66.961,334.201 67.276 C 333.880 67.596,313.449 67.526,312.486 67.201 C 311.726 66.945,310.780 66.002,310.294 65.017 L 309.917 64.250 309.917 34.667 L 309.917 5.083 310.412 4.188 C 310.957 3.205,311.666 2.580,312.625 2.238 C 313.619 1.883,334.093 1.897,334.292 2.253 M365.020 2.170 C 365.899 2.414,367.054 3.507,367.518 4.535 L 367.917 5.417 367.917 14.917 L 367.917 24.417 361.750 24.417 L 355.583 24.417 355.539 19.681 C 355.510 16.526,355.433 14.870,355.310 14.722 C 354.940 14.276,349.860 14.415,349.749 14.875 C 349.699 15.081,349.679 24.175,349.704 35.083 L 349.750 54.917 352.583 54.917 L 355.417 54.917 355.459 50.083 C 355.498 45.777,355.533 45.227,355.783 45.042 C 356.189 44.740,367.311 44.742,367.724 45.043 C 367.990 45.239,368.007 45.917,367.964 54.668 L 367.917 64.083 367.448 65.037 C 366.207 67.564,366.441 67.527,351.917 67.466 C 338.193 67.407,338.788 67.523,337.570 64.667 C 337.044 63.435,336.985 6.830,337.507 5.107 C 337.927 3.722,339.026 2.490,340.093 2.208 C 340.980 1.974,364.186 1.938,365.020 2.170 M399.133 2.200 C 399.439 2.505,399.418 14.055,399.112 14.310 C 398.969 14.428,397.568 14.509,395.154 14.538 L 391.417 14.583 391.374 40.907 C 391.341 61.712,391.289 67.259,391.124 67.363 C 390.853 67.535,379.147 67.535,378.876 67.363 C 378.711 67.259,378.659 61.712,378.626 40.907 L 378.583 14.583 374.833 14.540 C 371.546 14.502,371.058 14.462,370.875 14.216 C 370.581 13.821,370.573 2.493,370.867 2.200 C 371.156 1.910,398.844 1.910,399.133 2.200 M186.601 14.764 C 186.394 15.304,186.488 31.255,186.700 31.467 C 187.077 31.844,191.451 31.736,191.661 31.344 C 191.923 30.855,191.897 14.963,191.633 14.700 C 191.300 14.367,186.731 14.424,186.601 14.764 M222.101 14.764 C 221.894 15.304,221.988 31.255,222.200 31.467 C 222.338 31.605,223.181 31.667,224.917 31.667 C 226.652 31.667,227.495 31.605,227.633 31.467 C 227.922 31.178,227.922 14.988,227.633 14.700 C 227.299 14.365,222.232 14.424,222.101 14.764 M255.244 14.708 C 255.200 14.823,255.184 23.917,255.207 34.917 L 255.250 54.917 258.042 54.962 C 260.213 54.998,260.835 54.961,260.842 54.796 C 260.915 52.973,260.833 14.800,260.755 14.675 C 260.590 14.407,255.346 14.439,255.244 14.708 M17.156 18.290 C 16.009 19.460,14.793 20.736,14.452 21.125 L 13.833 21.834 13.833 25.904 C 13.833 28.142,13.879 30.091,13.934 30.236 C 14.122 30.726,19.464 30.621,19.585 30.125 C 19.756 29.419,19.593 16.281,19.412 16.221 C 19.318 16.189,18.303 17.121,17.156 18.290 M134.433 18.859 L 131.833 21.551 131.833 26.029 L 131.833 30.508 134.625 30.462 L 137.417 30.417 137.460 23.292 C 137.497 17.247,137.468 16.167,137.268 16.167 C 137.139 16.167,135.863 17.378,134.433 18.859 M369.875 32.607 C 369.563 32.738,369.623 32.950,370.000 33.048 C 370.301 33.127,370.333 33.276,370.333 34.580 C 370.333 35.936,370.093 36.704,369.770 36.381 C 369.713 36.324,369.667 36.487,369.667 36.743 C 369.667 37.138,369.629 37.176,369.415 36.999 C 369.259 36.869,368.910 36.824,368.495 36.880 C 368.041 36.940,367.751 36.894,367.592 36.735 C 367.403 36.546,366.591 36.500,363.478 36.500 L 359.599 36.500 359.050 35.967 C 358.442 35.378,358.205 33.667,358.731 33.667 C 358.857 33.667,359.000 33.517,359.048 33.333 C 359.132 33.014,359.276 33.000,362.381 33.000 C 364.773 33.000,365.672 32.945,365.801 32.792 C 365.920 32.649,366.625 32.573,368.029 32.552 C 369.159 32.534,369.990 32.559,369.875 32.607 " stroke="none" fill="#192b34" fill-rule="evenodd"></path></g></svg>